<svg width="524" height="524" viewBox="0 0 524 524" fill="none" xmlns="http://www.w3.org/2000/svg">
<rect width="524" height="524" rx="10" fill="white"/>
<g clip-path="url(#clip0_24_11)">
<path d="M181.73 322.64C166.58 310.72 150.31 299.21 139.22 283.08C115.93 254.6 97.9799 221.77 85.7699 187.12C78.3299 164.67 75.8099 140.54 66.2699 118.8C56.3099 103.09 67.9499 85.97 85.2099 80.92C92.9299 79.38 106.39 72.22 90.1199 77.41C75.5299 88.07 74.1299 67.73 89.1399 66.47C99.3799 65.07 103.17 56.79 99.6599 49.21C88.7199 42.06 126.17 34.2 107.38 23.54C87.7399 2.36003 134.88 -1.70997 123.23 22.28C120.42 40.8 156.2 18.91 147.92 40.24C156.34 50.48 179.48 42.62 178.92 56.93C191.27 57.77 195.47 68.15 206.98 68.85C218.9 74.18 240.65 78.53 244.58 92C232.8 101.4 205.3 72.64 204.04 98.59C207.69 136.89 206.71 176.45 220.73 213.06C227.32 235.23 243.46 252.62 258.05 269.88C271.94 286.71 290.74 298.64 309.96 308.6C326.79 316.6 344.89 321.79 363.27 325.15C370.71 319.4 383.89 298.36 395.54 307.19C396.1 317.29 372.53 328.23 394.42 327.11C407.33 323.18 416.3 337.07 426.83 324.58C436.65 336.22 467.51 317.14 460.5 340.85C451.1 346.88 437.35 343.23 427.95 351.65C412.38 343.93 400.03 358.52 382.92 356.7C363.84 360.07 344.34 361.47 324.98 361.47C293.28 358.94 260.73 357.96 230.57 346.88C213.3 342 196.74 332.32 181.73 322.64ZM208.67 334.28C225.22 341.43 241.5 349.01 259.73 351.39C288.63 355.46 318.51 361.63 347.41 356.02C334.22 350.13 320.76 358.26 307.57 351.81C291.86 355.18 275.02 350.97 259.17 348.86C241.07 340.72 221.43 335.25 204.46 324.73C183.28 317.01 215.4 334.69 221.15 336.09C234.48 343.67 206.56 332.16 202.63 329.08C191.55 322.91 190.14 324.17 201.51 330.48C203.9 331.76 206.14 333.16 208.67 334.28ZM176.96 311.98C193.09 318.01 176.82 300.62 169.52 301.6C166.29 295.99 157.03 292.34 163.49 289.25C151.85 293.32 151.29 273.82 145.67 276.62C133.32 272.69 140.9 258.8 126.03 250.39C124.63 241.41 111.44 233.7 107.09 220.09C105.27 213.22 92.0799 193.3 100.08 211.81C106.95 229.63 119.02 244.92 129.12 260.07C136.98 274.52 146.23 289.67 160.4 298.79C165.6 303.42 170.23 310.43 176.96 311.98ZM247.95 341.86C254.54 346.07 286.53 350.98 266.47 343.54C263.1 344.24 229.43 334 247.95 341.86ZM175 282.66C182.72 288.55 206.28 283.36 186.78 279.15C177.94 274.52 158.16 271.29 171.63 281.96L175 282.66ZM212.46 302.58C231.4 307.91 196.61 290.66 207.83 300.62L210.36 301.74L212.46 302.58ZM212.6 292.48C226.35 294.3 196.19 283.08 209.51 291.5L212.6 292.48ZM260.43 321.94C273.34 314.22 268.99 339.9 282.17 324.04C295.22 314.5 270.95 335.82 286.94 325.72C298.58 318 315.7 329.37 326.5 333.16C334.22 332.74 341.79 339.89 349.79 335.54C365.08 331.47 319.77 329.37 331.69 322.07C317.66 326.14 307.28 317.16 300.41 308.18C284.7 304.53 266.46 296.54 258.6 282.51C255.37 277.32 263.23 283.21 255.79 274.65C246.25 266.23 241.62 256.69 235.17 246.45C227.59 242.38 226.61 230.46 225.91 246.03C225.91 236.21 216.79 229.62 214.41 232.28C214.41 222.74 224.37 227.51 217.36 220.5C215.82 210.68 210.91 200.44 209.5 189.36C207.26 184.03 209.22 172.53 201.64 184.73C198.83 197.5 200.8 169.02 205.01 178.42C210.62 168.88 203.05 170 202.63 171.27C206.28 163.13 204.87 151.63 201.65 156.12C203.61 147.56 204.74 124.56 198.7 128.62C202.35 119.64 205.57 87.52 189.86 99.72C183.55 99.86 172.46 101.96 167.27 104.63C183.68 113.61 165.59 107.86 158.99 106.45C158.15 114.87 151.55 111.22 143.28 111.22C156.47 112.9 136.83 124.69 129.25 120.06C119.43 124.69 137.67 136.47 129.39 140.12C130.37 145.59 114.38 138.16 115.64 150.78C106.1 146.71 114.38 165.79 119.15 159.34C135.28 163.69 130.51 173.65 130.93 183.19C128.26 188.66 117.88 170.14 128.69 170.99C120.27 157.24 119.29 166.08 112.28 172.39C110.6 172.81 130.24 181.51 117.89 185.72C128.69 187.4 128.97 196.8 131.22 202.83C137.67 209.56 136.41 195.39 144.13 203.53C139.22 196.24 118.04 183.19 135.15 187.4C135.01 180.11 132.06 174.21 137.25 174.35C142.44 164.95 131.78 197.36 143.42 185.57C146.65 184.17 147.49 176.17 153.24 186.27C161.66 194.55 156.33 200.58 144.4 193C146.5 200.15 160.25 202.82 157.73 214.04C160.54 224 164.32 220.35 167.69 219.65C170.36 229.33 171.76 222.18 171.9 217.55C183.82 220.08 181.02 227.23 184.81 232.14C193.09 235.93 173.03 206.89 187.19 223.44C202.06 236.91 192.8 242.52 179.33 240.41C187.75 239.71 190.55 251.91 201.07 251.49C210.75 256.12 217.34 273.8 200.65 266.36C194.9 261.17 174.42 254.72 191.11 264.68C206.54 271.83 218.75 276.04 233.62 285.02C244.28 292.6 248.91 301.29 252.84 302.98C243.86 307.19 225.9 299.61 239.23 297.23C230.81 295.69 221.55 291.48 229.55 301.86C236.28 307.61 253.68 306.91 256.77 307.61C254.1 313.36 249.62 313.92 256.91 314.34C249.07 318.71 259.73 319.41 260.43 321.94ZM243.88 275.22C238.97 270.03 237.71 260.49 243.04 268.77C245.7 270.03 251.74 284.62 243.88 275.22ZM212.46 223.31C206.57 210.26 216.67 216.16 213.72 225.41L212.46 223.31ZM158.45 187.4C155.78 183.05 151.44 170.43 152.84 166.64C154.1 172.95 166.17 193.72 158.73 175.2C150.59 159.77 168.55 180.25 170.37 184.04C171.21 187.83 165.32 183.06 169.39 192.04C162.09 181.79 165.18 197.64 158.45 187.4ZM131.23 164.53C125.06 158.36 120.57 152.75 131.51 160.74C135.72 160.88 122.11 147.83 132.49 156.53C143.57 158.64 137.96 174.49 131.23 164.53ZM135.02 155.14C116.92 139.15 157.61 163.56 137.97 158.09L135.02 155.14ZM186.64 185.16C178.78 180.53 184.54 152.19 187.2 171.55C194.78 169.02 186.78 181.51 192.39 181.37C191.69 189.22 189.03 192.03 186.64 185.16ZM138.52 149.8C126.88 133.81 172.19 165.93 145.96 153.87C143.29 153.17 139.93 152.89 138.52 149.8ZM140.35 143.77C147.22 142.23 168.83 155.83 149.05 147.7C146.8 145.17 142.03 146.3 140.35 143.77ZM199.41 173.23C200.11 159.48 203.48 164.95 199.41 175.19V173.23ZM145.4 139C148.21 134.93 137.96 120.34 146.94 133.81C150.87 136.9 158.16 139 151.71 140.26C161.81 149.1 149.19 142.65 145.4 139ZM190.29 131.57C186.64 125.26 194.78 103.79 195.76 117.12C191.97 127.5 194.64 133.25 197.3 119.36C202.21 108.42 196.32 140.97 190.29 131.57ZM205.16 285.18C215.4 287.85 215.4 283.64 206.14 282.37C201.23 277.74 185.38 272.83 199.55 281.81C200.39 284.2 203.34 284.06 205.16 285.18ZM168.83 261.05C174.44 265.26 190.15 272.97 176.83 262.59C181.32 257.4 168.27 254.59 172.62 251.23C161.68 244.5 163.92 245.06 171.64 245.34C158.45 239.45 173.6 239.87 172.76 236.92C167.71 235.94 147.51 227.94 159.43 237.62C147.37 231.45 156.62 239.86 152.98 239.02C140.63 235.65 163.92 248.42 151.02 245.19C158.03 250.8 170.1 259.5 153.97 251.08C151.85 254.18 165.46 258.81 168.83 261.05ZM296.91 336.1C302.38 330.91 297.19 344.52 305.89 334.84C306.03 327.97 305.61 323.9 295.79 332.31C293.12 333.86 291.86 340.17 296.91 336.1ZM208.39 279.29C214.42 284.62 236.03 283.22 215.68 279.99C212.6 275.5 196.46 276.62 208.39 279.29ZM109.2 212.79C100.5 200.3 103.73 194.69 95.3099 184.59C93.7699 176.73 80.8599 159.2 88.7199 177.86C95.8799 188.66 97.9799 205.64 109.2 212.79ZM320.48 339.75C329.6 333.86 318.38 334.7 318.8 340.31L320.48 339.75ZM335.21 343.68C346.99 335.26 328.06 342 332.83 345.22L335.21 343.68ZM138.52 218.4C147.08 220.36 172.89 239.58 157.6 219.8C149.88 217.56 154.51 198.48 146.52 201.84C151.85 210.68 150.87 214.47 139.79 208.85C125.76 201.98 131.93 212.22 134.6 215.02C130.95 215.88 139.65 218.26 138.52 218.4ZM99.3799 187.54C100.92 181.23 85.2099 152.61 91.9399 173.23C94.4699 177.44 94.1899 185.72 99.3799 187.54ZM368.17 335.82C376.73 334.14 396.09 340.17 399.17 333.58C388.79 333.3 363.4 326.29 362.27 335.26L364.51 335.68L368.17 335.82ZM103.31 150.93C111.87 147.56 87.7399 143.92 101.63 150.37L103.31 150.93ZM76.5199 121.05C74.9799 112.21 75.1199 96.64 89.9899 101.83C70.2099 105.76 103.74 126.38 99.5299 110.11C107.81 110.53 115.8 105.2 111.45 113.34C127.86 111.52 139.23 97.35 155.08 99.31C167.43 97.63 180.89 96.5 194.22 91.45C205.16 90.61 215.68 78.96 209.65 71.95C194.78 70.69 179.21 72.51 162.65 75.88C144.41 79.67 127.86 86.82 109.48 89.91C91.5199 92.29 113.13 96.5 107.94 97.49C98.5399 100.72 119.16 102.96 106.68 106.33C99.0999 104.93 91.1099 102.26 94.3299 94.13C77.0699 96.37 62.0599 103.53 75.6699 120.92L76.5199 121.05ZM118.04 99.86C122.11 84.99 139.64 112.06 124.63 101.82C122.81 100.56 119.87 99.44 118.04 99.86ZM126.18 92.85C126.74 85.98 143.15 96.5 128.85 95.38L126.18 92.85ZM138.8 86.96C144.97 79.52 173.59 82.19 152.69 86.26C147.08 82.05 142.73 88.78 138.8 86.96ZM186.78 81.2C190.71 71.1 201.79 77.13 188.6 79.1C188.89 80.22 188.19 84.43 186.78 81.2ZM436.35 335.96C445.61 335.96 464.41 333.01 444.21 333.15C441.12 333.58 425.83 333.44 436.35 335.96ZM117.34 133.25C124.78 132.69 129.12 124.97 115.94 125.39C95.4599 123.29 133.9 132.4 113.27 129.74C110.47 131.71 117.2 133.81 117.34 133.25ZM106.82 74.19C120.15 69.7 138.52 64.51 144.84 76.43C138.39 68.71 142.17 61.14 148.35 72.36C156.91 83.86 161.26 67.17 155.64 63.38C161.95 71.24 169.25 75.02 159.85 63.94C169.95 51.74 139.51 65.48 132.63 65.34C129.27 66.75 98.2599 73.21 106.82 74.19ZM114.68 59.18C122.26 53.43 141.05 62.55 128.99 53.43C127.86 52.3 102.61 60.3 114.68 59.18ZM142.45 60.3C151.43 60.58 138.66 48.24 149.18 53.85C147.5 48.1 136.83 47.12 131.64 44.73C128.7 49.92 137.68 60.3 142.45 60.3ZM130.95 37.72C145.4 35.76 127.3 31.55 128 37.58L130.95 37.72ZM109.63 21.16C99.5299 7.97003 128.71 23.4 118.33 9.52003C109.77 2.64003 101.49 17.23 109.63 21.16ZM239.67 91.16C244.3 82.88 220.45 80.08 236.58 88.21C237.99 88.78 237.71 91.73 239.67 91.16Z" fill="black"/>
<path d="M145.4 397.69C144.42 401.76 143.72 408.49 143.44 418.17C143.44 419.99 142.6 420.98 140.91 420.98C139.23 420.98 137.96 420.14 137.4 418.6C135.58 414.25 133.89 411.16 132.21 409.34C130.25 407.24 127.72 405.97 124.49 405.55C120.98 404.99 112.43 404.71 98.6799 404.71C95.5899 404.71 93.4899 404.99 92.5099 405.69C91.9499 406.11 91.6699 406.95 91.6699 408.36V449.46C91.6699 450.86 92.5099 451.56 94.3399 451.42C99.6699 451.42 107.53 451 117.77 450.3C119.73 450.02 121.14 449.46 121.84 448.34C122.54 447.22 123.24 444.55 123.94 440.06C124.36 437.68 125.76 436.69 128.15 437.25C130.25 437.67 131.1 438.65 130.82 440.06C129.14 448.34 128.58 459 129.14 472.19C129.14 473.73 128.16 474.57 126.19 474.72C124.51 474.86 123.38 474.02 122.96 472.05C121.42 464.47 118.47 460.41 114.26 459.99C110.05 459.43 103.04 459.29 93.3599 459.29C92.2399 459.29 91.6799 459.71 91.6799 460.41V501.23C91.6799 504.32 92.7999 506.28 95.0499 507.4C96.8699 508.24 100.52 509.08 106.41 509.78C109.36 510.06 110.62 511.32 110.34 513.71C109.92 515.67 107.25 516.52 102.34 516.09C88.0299 514.97 76.1099 514.97 66.8499 516.23C64.1799 516.65 62.9199 515.53 62.9199 513C62.9199 511.46 64.1799 510.47 66.8499 510.33C72.7399 509.63 75.6899 504.44 75.6899 494.76V417.04C75.6899 413.11 74.9899 410.03 73.5899 407.78C72.1899 405.68 69.5199 403.71 65.5899 401.89C63.2099 400.77 62.2199 399.36 62.9199 397.4C63.1999 396.28 63.7599 395.58 64.3199 395.44C64.8799 395.3 66.5599 395.44 69.0899 395.86C72.8799 396.42 81.8599 396.7 96.0299 396.7C112.72 396.7 127.17 396.28 139.38 395.58C143.45 395.3 145.41 395.72 145.41 396.56C145.4 397.13 145.4 397.41 145.4 397.69Z" fill="black"/>
<path d="M204.18 512.87C204.18 515.25 202.78 516.38 200.11 516.1C191.69 515.26 181.45 515.4 169.11 516.52C166.58 516.8 165.04 516.66 164.48 516.38C163.92 515.96 163.64 514.98 163.64 513.43C163.64 512.03 165.32 510.76 168.55 509.78C171.92 508.8 173.46 505.85 173.46 500.8V418.59C173.46 413.68 172.76 410.03 171.36 407.79C169.96 405.55 167.43 403.72 163.92 402.46C162.1 401.76 161.11 400.92 161.11 399.65C161.11 397.83 162.51 396.42 165.18 395.58C169.25 394.32 173.6 392.21 177.95 389.41C181.6 387.17 183.84 386.18 184.82 386.18C187.06 386.18 188.19 387.72 188.19 390.81C188.19 390.53 188.05 393.62 187.77 399.93C187.63 405.96 187.49 411.85 187.63 417.61L188.05 498.7C188.05 502.35 188.89 505.01 190.72 506.7C192.54 508.38 195.63 509.51 200.12 510.07C202.92 510.06 204.18 511.18 204.18 512.87Z" fill="black"/>
<path d="M286.39 507.54C286.39 508.8 284.15 510.77 279.52 513.29C274.89 515.82 271.24 517.22 268.44 517.22C266.06 517.22 263.95 516.1 262.13 513.71C260.31 511.47 259.04 510.2 258.34 510.2C257.78 510.2 254.97 511.46 249.78 513.99C244.59 516.52 239.4 517.78 234.07 517.78C229.16 517.78 224.95 516.38 221.58 513.43C217.93 510.2 216.11 505.85 216.11 500.38C216.11 489.86 228.03 482.42 252.02 477.93C256.09 477.09 258.19 475.55 258.33 472.88L258.47 467.13C258.89 457.17 254.4 452.26 245.28 452.26C242.61 452.26 240.23 454.64 237.84 459.27C235.46 463.9 232.23 466.42 227.74 466.85C222.83 467.27 220.3 465.31 220.3 460.54C220.3 457.59 223.95 454.23 231.38 450.44C239.1 446.37 246.53 444.41 253.69 444.41C266.04 444.41 272.07 450.3 271.93 461.95L271.51 499.41C271.51 503.34 273.05 505.3 276.56 505.3C277.26 505.3 278.52 505.16 280.35 504.88C282.17 504.6 283.3 504.46 283.58 504.46C285.4 504.03 286.39 505.15 286.39 507.54ZM258.33 486.77C258.33 485.23 258.05 484.24 257.35 483.82C256.65 483.4 255.39 483.26 253.7 483.54C239.11 486.21 231.82 490.83 231.82 497.85C231.82 504.87 235.61 508.23 243.18 508.23C246.27 508.23 249.35 507.67 252.58 506.55C256.37 505.15 258.19 503.6 258.19 501.78L258.33 486.77Z" fill="black"/>
<path d="M353.86 497.01C353.86 503.46 351.33 508.51 346.42 512.3C341.51 516.09 334.78 517.91 326.22 517.91C320.47 517.91 314.86 517.35 309.1 516.09C304.19 514.97 301.38 513.99 300.54 513.14C300.12 512.3 299.84 508.09 299.84 500.65C299.84 497.42 300.54 495.74 302.08 495.6C303.48 495.46 304.75 496.16 305.87 497.98C310.36 505.98 317.79 509.9 327.9 509.9C336.46 509.9 340.67 506.95 340.67 501.06C340.67 498.39 339.69 496.29 337.72 494.47C335.62 492.51 331.55 490.12 325.37 487.46C316.53 483.53 310.64 480.02 307.69 477.08C304.46 473.99 302.92 469.64 302.92 464.31C302.92 457.72 305.45 452.67 310.5 449.02C315.13 445.51 321.44 443.69 329.16 443.69C334.07 443.69 338.56 444.11 342.63 444.81C346.98 445.65 349.22 446.49 349.5 447.76C349.92 451.13 351.04 456.04 352.45 462.49C352.59 463.33 351.75 463.89 349.92 464.45C347.96 464.87 346.55 464.59 345.99 463.47C341.22 455.61 335.19 451.83 327.89 451.83C319.61 451.83 315.4 454.5 315.4 459.83C315.4 462.78 316.52 465.16 318.77 466.84C320.73 468.38 325.5 470.77 332.8 473.99C340.52 477.36 345.85 480.3 348.65 482.97C352.04 486.63 353.86 491.26 353.86 497.01Z" fill="black"/>
<path d="M460.62 513.01C460.62 515.11 459.22 516.24 456.41 516.38C452.2 516.38 446.59 516.8 439.86 517.22C436.49 517.92 434.11 517.5 432.57 515.96C423.03 505.72 414.89 494.92 408.3 483.69C407.74 482.71 407.04 482.29 406.2 482.29C405.22 482.29 403.39 483.13 400.87 484.96C398.06 486.5 396.66 488.75 396.66 491.69C396.66 493.79 396.66 496.74 396.8 500.53C396.94 504.46 397.92 506.98 399.75 508.11C401.01 508.95 403.96 509.65 408.59 510.07C411.4 510.49 412.8 511.47 412.8 513.3C412.8 514.7 412.52 515.54 412.1 515.83C411.68 516.11 410.42 516.25 408.45 516.11C402.42 515.55 392.18 515.83 377.73 516.95C374.08 517.23 372.12 516.81 371.84 515.55C371.7 515.13 371.7 514.57 371.7 513.73C371.7 511.91 373.52 510.36 377.31 509.52C380.68 508.68 382.36 504.75 382.36 497.74V418.34C382.36 413.43 381.94 409.92 380.96 407.96C379.7 405.43 376.89 403.47 372.54 402.21C370.58 401.51 369.59 400.67 369.59 399.4C369.59 397.58 370.99 396.31 373.8 395.33C378.29 393.79 382.64 391.68 386.85 389.02C390.22 386.78 392.18 385.79 393.02 385.79C395.55 385.79 396.81 387.33 396.81 390.56C396.81 390.14 396.81 393.09 396.67 399.54C396.67 403.89 396.53 409.92 396.53 417.36L396.67 474.18C396.67 475.72 397.09 476.56 397.93 476.56C398.77 476.56 400.17 475.72 402.14 474.18C407.19 470.25 413.36 465.06 420.66 458.75C422.06 457.21 422.9 456.08 422.9 455.1C422.9 453.42 420.52 452.29 415.61 451.59C413.51 451.31 412.52 450.19 412.66 448.08C412.8 445.98 413.92 444.99 415.89 445.41C420.24 445.97 426.55 446.39 434.97 446.39C440.72 446.39 446.61 446.53 452.37 446.53C454.19 446.53 455.18 447.65 455.18 449.9C455.18 452 453.64 453.13 450.69 453.27C446.06 453.41 441.57 454.53 437.5 456.5C431.75 459.17 425.58 463.65 419.12 470.25C418.7 470.67 418.42 471.09 418.42 471.65C418.42 472.49 419.4 474.6 421.51 477.68C429.09 489.18 436.24 497.88 442.97 503.77C447.32 507.42 451.25 509.24 455.03 509.24C457.84 509.24 459.52 509.38 460.22 509.8C460.34 510.2 460.62 511.32 460.62 513.01Z" fill="black"/>
</g>
<defs>
<clipPath id="clip0_24_11">
<rect width="512" height="512" fill="white" transform="translate(6 6)"/>
</clipPath>
</defs>
</svg>
